<?xml version="1.0" standalone="no"?>
<!DOCTYPE svg PUBLIC "-//W3C//DTD SVG 20010904//EN"
 "http://www.w3.org/TR/2001/REC-SVG-20010904/DTD/svg10.dtd">
<svg version="1.0" xmlns="http://www.w3.org/2000/svg"
 width="900.000000pt" height="711.000000pt" viewBox="0 0 900.000000 711.000000"
 preserveAspectRatio="xMidYMid meet">
<metadata>
Created by potrace 1.10, written by Peter Selinger 2001-2011
</metadata>
<g transform="translate(0.000000,711.000000) scale(0.100000,-0.100000)"
fill="#000000" stroke="none">
<path d="M4185 7009 c-60 -4 -144 -12 -185 -18 -41 -6 -119 -13 -173 -16 -54
-3 -103 -8 -109 -11 -6 -4 -38 -10 -72 -14 -33 -4 -106 -19 -161 -32 -55 -14
-140 -33 -189 -42 -49 -9 -98 -23 -110 -31 -11 -8 -33 -15 -48 -15 -36 0 -172
-45 -213 -70 -18 -11 -42 -20 -53 -20 -12 0 -36 -6 -54 -14 -18 -8 -53 -22
-78 -31 -58 -22 -111 -47 -130 -60 -8 -6 -33 -17 -55 -24 -59 -20 -314 -144
-359 -175 -21 -14 -45 -26 -53 -26 -8 0 -33 -13 -56 -29 -89 -62 -221 -147
-257 -166 -38 -21 -140 -95 -175 -128 -11 -11 -36 -30 -56 -42 -20 -13 -50
-36 -65 -51 -16 -15 -51 -44 -79 -66 -52 -41 -81 -68 -179 -168 -32 -33 -82
-75 -110 -94 -28 -19 -63 -47 -78 -62 -54 -58 -142 -160 -170 -199 -16 -22
-51 -63 -78 -91 -27 -27 -66 -78 -87 -113 -21 -34 -47 -78 -59 -97 -11 -19
-27 -40 -36 -47 -20 -16 -119 -172 -142 -224 -10 -23 -25 -44 -32 -47 -8 -3
-14 -12 -14 -19 0 -8 -13 -38 -29 -68 -15 -30 -38 -85 -51 -124 -12 -38 -26
-74 -31 -79 -5 -6 -9 -17 -9 -26 0 -8 -11 -36 -25 -62 -14 -26 -25 -59 -25
-73 0 -14 -13 -52 -30 -84 -25 -50 -28 -64 -20 -92 7 -24 5 -52 -9 -108 -20
-77 -27 -123 -39 -266 -4 -44 -13 -91 -21 -103 -12 -23 -12 -53 4 -212 8 -70
8 -84 1 -205 -5 -101 9 -187 60 -345 8 -25 14 -73 14 -107 0 -35 6 -80 14
-100 29 -83 46 -139 46 -156 0 -10 14 -45 30 -78 17 -33 35 -79 40 -102 7 -38
39 -122 76 -204 8 -17 14 -36 14 -41 0 -6 18 -32 40 -57 22 -25 40 -52 40 -58
0 -7 15 -31 34 -54 18 -23 39 -57 46 -75 16 -38 51 -87 130 -178 31 -36 68
-83 83 -105 35 -52 163 -190 302 -325 111 -108 135 -130 265 -230 40 -30 89
-68 110 -85 21 -16 72 -55 115 -85 42 -30 96 -71 120 -90 24 -19 70 -48 102
-64 32 -16 79 -44 106 -62 26 -18 73 -44 105 -59 31 -14 71 -33 87 -41 120
-65 301 -154 312 -154 7 0 42 -14 78 -31 35 -16 81 -33 102 -36 21 -4 65 -19
98 -35 33 -15 68 -28 77 -28 9 0 27 -4 40 -9 13 -5 52 -17 88 -26 36 -9 74
-22 85 -28 11 -6 47 -16 80 -23 33 -7 107 -22 165 -34 58 -11 117 -28 132 -36
14 -8 48 -14 75 -14 26 -1 68 -5 93 -10 25 -6 99 -17 165 -26 160 -20 868 -30
1085 -14 85 6 209 15 275 20 66 4 136 13 155 19 19 6 63 11 98 11 59 0 120 11
247 46 28 7 86 20 130 29 44 9 103 22 130 30 28 8 75 21 105 29 70 19 197 58
275 84 33 11 92 30 130 43 39 12 90 32 115 44 25 12 61 29 80 37 111 46 458
227 505 262 19 14 38 26 44 26 6 0 37 18 68 40 61 43 174 118 201 135 9 6 81
62 160 125 79 63 171 137 205 163 34 27 97 85 140 130 42 45 132 140 200 210
67 71 126 138 132 150 5 12 34 56 65 97 31 41 74 104 95 140 22 36 46 72 54
80 7 8 26 39 40 70 15 31 36 69 47 85 21 30 114 227 114 241 0 4 8 26 19 48
39 86 69 163 76 196 4 19 13 46 20 60 16 30 45 154 45 190 0 24 19 112 45 215
8 28 17 77 20 110 4 33 11 68 16 78 15 27 13 402 -3 429 -7 14 -13 67 -14 128
-1 70 -11 145 -29 225 -14 66 -30 140 -35 165 -9 48 -32 115 -48 146 -6 11
-24 64 -41 118 -17 55 -49 136 -70 180 -22 45 -43 95 -47 111 -10 46 -92 212
-141 286 -24 37 -43 74 -43 83 0 9 -23 41 -51 72 -28 31 -57 71 -64 89 -8 17
-21 38 -30 45 -9 8 -31 34 -48 59 -17 25 -56 73 -87 107 -76 84 -99 110 -149
177 -24 31 -46 57 -50 57 -4 0 -22 14 -41 32 -19 17 -55 47 -80 66 -25 19 -50
43 -56 54 -5 10 -22 27 -36 36 -15 9 -54 38 -87 65 -34 26 -64 47 -67 47 -3 0
-32 20 -64 45 -32 25 -62 45 -66 45 -4 0 -25 15 -48 33 -52 42 -165 117 -176
117 -13 0 -110 58 -152 91 -20 16 -58 39 -85 50 -26 12 -61 31 -78 43 -16 12
-46 28 -65 36 -51 19 -103 42 -213 94 -54 25 -103 46 -110 46 -16 0 -157 59
-182 76 -11 8 -31 14 -45 14 -14 0 -30 4 -36 8 -15 14 -138 52 -168 52 -14 0
-42 6 -60 14 -18 7 -53 17 -77 21 -24 4 -71 16 -104 27 -87 29 -271 55 -595
83 -102 9 -205 20 -230 26 -55 11 -683 18 -835 8z m580 -111 c111 2 121 2 198
0 23 -1 60 0 82 1 22 2 58 -2 80 -7 22 -6 105 -16 184 -22 79 -7 158 -18 175
-25 17 -7 42 -11 56 -8 15 2 54 -5 88 -16 34 -12 75 -21 92 -21 17 0 43 -6 58
-14 15 -7 57 -17 94 -21 37 -3 91 -16 120 -27 78 -29 110 -38 136 -38 13 0 56
-15 95 -34 40 -18 88 -37 107 -41 19 -4 55 -19 80 -34 25 -15 60 -31 79 -34
19 -4 68 -24 110 -46 42 -21 91 -42 109 -46 18 -3 45 -17 60 -29 15 -13 63
-37 107 -56 44 -18 96 -45 116 -61 20 -16 43 -29 51 -29 8 0 19 -5 25 -11 12
-12 27 -22 94 -58 24 -13 61 -38 81 -55 66 -55 93 -74 156 -106 34 -17 62 -35
62 -41 0 -17 76 -85 136 -121 32 -20 70 -48 83 -62 14 -14 28 -26 33 -26 12 0
99 -68 120 -95 10 -13 35 -34 56 -45 40 -23 83 -77 122 -155 14 -27 36 -55 48
-61 30 -15 62 -45 62 -58 0 -6 22 -38 50 -71 27 -33 61 -74 75 -91 14 -18 25
-40 25 -49 0 -10 14 -33 30 -52 17 -18 30 -40 30 -48 0 -8 6 -18 13 -22 17
-11 77 -106 77 -123 0 -7 14 -28 30 -47 23 -26 30 -43 30 -74 0 -30 8 -51 29
-78 49 -62 77 -138 110 -301 6 -30 21 -73 32 -97 11 -23 27 -80 35 -125 20
-111 28 -151 47 -228 41 -166 58 -431 37 -565 -6 -38 -13 -121 -16 -184 -3
-63 -9 -121 -13 -130 -5 -9 -12 -44 -16 -78 -8 -71 -25 -88 -95 -99 -31 -5
-44 -3 -51 7 -13 21 -11 147 3 172 6 12 13 42 15 67 1 25 7 81 13 125 14 105
14 322 0 376 -6 23 -10 81 -9 128 1 47 -3 115 -10 151 -7 36 -16 98 -21 139
-10 80 -17 107 -60 221 -15 41 -35 100 -44 130 -24 77 -71 192 -117 283 -10
21 -19 48 -19 61 0 13 -13 42 -30 64 -16 23 -30 45 -30 49 0 5 -19 32 -41 62
-23 30 -50 74 -60 98 -19 44 -76 124 -154 215 -64 76 -99 119 -110 138 -15 28
-56 70 -261 270 -105 102 -204 192 -220 200 -16 8 -51 27 -77 42 -26 16 -54
28 -63 28 -8 0 -34 19 -58 42 -25 22 -89 67 -143 99 -54 31 -116 68 -138 82
-76 48 -134 77 -151 77 -9 0 -34 16 -55 35 -22 19 -47 35 -58 35 -10 0 -38 10
-62 23 -24 13 -66 32 -94 42 -27 11 -65 30 -84 42 -18 12 -49 25 -70 28 -20 3
-49 10 -66 16 -16 6 -64 22 -105 35 -41 13 -109 34 -150 47 -41 13 -113 34
-160 46 -47 12 -112 28 -145 37 -101 26 -233 45 -380 55 -77 5 -187 14 -245
20 -167 19 -392 26 -710 22 -291 -2 -350 -6 -605 -38 -71 -10 -164 -20 -205
-24 -41 -3 -84 -11 -95 -18 -11 -6 -56 -19 -100 -28 -44 -10 -86 -22 -94 -28
-7 -6 -36 -14 -65 -18 -28 -4 -87 -20 -131 -37 -178 -68 -219 -82 -239 -82
-12 0 -31 -6 -42 -14 -11 -8 -37 -17 -57 -21 -20 -4 -66 -25 -101 -46 -36 -21
-69 -39 -74 -39 -5 0 -86 -39 -178 -87 -93 -47 -201 -103 -241 -123 -39 -20
-97 -59 -128 -87 -31 -28 -84 -68 -118 -89 -77 -47 -177 -122 -177 -134 0 -4
-20 -18 -45 -30 -24 -12 -47 -29 -50 -39 -6 -21 -63 -68 -150 -125 -33 -22
-119 -99 -190 -171 -72 -71 -142 -139 -156 -150 -15 -11 -32 -31 -38 -43 -14
-26 -21 -35 -112 -140 -35 -41 -76 -91 -90 -112 -14 -21 -40 -54 -57 -74 -18
-21 -47 -67 -66 -104 -87 -172 -113 -219 -133 -240 -16 -15 -23 -34 -23 -58 0
-26 -13 -55 -44 -102 -24 -37 -47 -85 -51 -107 -4 -21 -16 -57 -27 -80 -12
-22 -27 -83 -35 -135 -8 -52 -16 -111 -19 -130 -3 -19 -17 -63 -30 -97 -17
-44 -23 -79 -23 -125 1 -34 -1 -135 -5 -223 -4 -88 -7 -167 -7 -175 -1 -8 4
-46 11 -85 6 -38 15 -119 18 -180 4 -60 12 -119 18 -130 11 -21 29 -104 40
-190 3 -27 9 -54 14 -60 4 -5 17 -44 30 -85 12 -41 33 -98 45 -125 13 -28 27
-64 31 -80 4 -17 20 -50 37 -75 16 -25 59 -101 94 -169 35 -69 81 -145 102
-170 21 -25 51 -66 67 -90 16 -24 40 -61 54 -81 14 -21 66 -84 115 -140 50
-56 106 -121 125 -144 19 -22 44 -48 55 -56 11 -7 59 -50 107 -95 167 -155
233 -212 268 -230 19 -9 46 -30 58 -46 13 -16 42 -39 65 -51 23 -11 77 -47
120 -79 44 -33 84 -59 90 -59 6 0 25 -13 42 -28 16 -16 53 -37 80 -47 28 -10
64 -28 80 -40 54 -39 135 -76 211 -94 16 -5 53 -24 81 -43 30 -20 70 -38 95
-42 24 -4 70 -20 102 -36 32 -17 64 -30 71 -30 7 0 34 -9 61 -21 60 -25 77
-32 134 -54 25 -10 63 -26 85 -36 26 -12 64 -18 110 -17 55 0 79 -5 108 -22
42 -25 128 -47 237 -60 41 -6 85 -14 98 -20 13 -5 62 -10 110 -10 48 -1 107
-5 132 -11 62 -14 294 -33 355 -29 78 5 113 5 214 -3 80 -7 96 -5 112 9 16 15
23 15 94 -2 64 -15 80 -16 97 -5 15 9 63 13 172 11 83 -1 178 4 211 10 33 6
116 14 185 18 69 4 134 12 145 18 37 21 200 54 355 71 25 3 50 9 56 14 16 13
135 49 164 49 14 0 34 7 44 15 11 8 32 15 47 15 15 0 43 9 61 19 18 11 53 24
78 31 25 6 54 15 65 20 11 5 63 25 115 45 52 19 113 45 135 57 95 51 123 65
170 86 28 13 68 33 90 46 22 13 72 40 110 61 39 21 91 53 116 71 25 18 56 38
70 44 13 5 65 39 114 75 50 36 98 68 108 72 9 3 17 9 17 13 0 5 9 12 20 15 12
4 49 30 83 59 34 29 70 57 79 62 77 42 461 434 534 543 19 29 54 76 79 104 25
29 45 57 45 63 0 7 15 30 33 52 19 22 40 55 47 73 8 19 24 46 36 61 12 15 46
75 75 135 29 59 59 113 65 118 6 6 20 37 29 70 10 33 25 68 33 78 8 9 15 34
14 54 -1 21 5 47 13 60 8 12 15 34 15 49 0 30 60 94 87 94 24 0 53 -30 53 -55
0 -28 -27 -95 -38 -95 -5 0 -6 -27 -4 -59 3 -45 -1 -70 -16 -103 -11 -23 -28
-63 -37 -88 -9 -25 -23 -57 -31 -72 -8 -14 -14 -37 -14 -51 0 -13 -7 -30 -15
-37 -8 -7 -15 -18 -15 -25 0 -8 -11 -26 -23 -42 -13 -15 -35 -50 -48 -78 -21
-44 -54 -94 -104 -160 -9 -11 -36 -54 -61 -97 -25 -42 -51 -79 -59 -82 -8 -3
-23 -22 -34 -43 -21 -40 -113 -143 -128 -143 -5 0 -23 -24 -41 -52 -19 -32
-72 -89 -134 -143 -57 -49 -116 -104 -133 -120 -16 -17 -46 -42 -65 -55 -37
-26 -66 -50 -134 -111 -55 -49 -175 -139 -186 -139 -4 0 -27 -16 -50 -35 -23
-19 -45 -35 -48 -35 -4 0 -24 -15 -44 -33 -21 -18 -48 -38 -60 -44 -95 -43
-90 -40 -173 -94 -22 -14 -67 -38 -100 -54 -145 -67 -293 -140 -327 -162 -21
-13 -44 -23 -53 -23 -8 0 -43 -13 -77 -29 -66 -30 -113 -48 -163 -61 -16 -4
-55 -19 -85 -32 -30 -14 -77 -29 -105 -33 -27 -4 -54 -10 -60 -14 -5 -5 -32
-15 -60 -24 -27 -9 -92 -30 -143 -47 -51 -16 -109 -30 -130 -30 -20 -1 -48 -7
-62 -15 -14 -8 -52 -14 -86 -15 -34 0 -88 -8 -120 -19 -33 -10 -102 -21 -154
-25 -52 -4 -124 -11 -160 -17 -157 -24 -202 -30 -310 -36 -63 -3 -146 -5 -184
-4 -38 1 -105 -3 -148 -9 -54 -8 -102 -8 -155 -1 -43 6 -145 13 -228 16 -82 3
-184 10 -225 16 -41 6 -109 15 -150 19 -88 8 -187 28 -213 41 -9 6 -45 14 -80
19 -34 4 -82 13 -107 19 -25 6 -65 16 -90 23 -25 6 -63 14 -85 18 -22 5 -76
20 -120 35 -129 43 -137 46 -195 60 -126 30 -147 37 -189 61 -24 13 -50 24
-59 24 -8 0 -40 14 -70 31 -31 17 -78 38 -106 46 -28 8 -55 19 -61 23 -5 4
-25 11 -42 15 -18 3 -59 25 -90 48 -32 23 -74 50 -93 59 -63 30 -108 48 -119
48 -6 0 -11 4 -11 10 0 5 -15 17 -32 26 -18 9 -44 25 -58 36 -22 17 -59 42
-195 131 -49 32 -100 74 -179 151 -33 32 -81 75 -106 94 -58 46 -210 200 -210
212 0 5 -13 16 -29 24 -16 9 -63 57 -104 108 -41 51 -85 102 -97 113 -13 11
-42 49 -65 85 -23 36 -52 74 -65 85 -12 11 -40 49 -61 85 -22 36 -55 90 -74
120 -19 30 -47 79 -61 109 -15 30 -35 62 -45 72 -10 10 -28 42 -39 71 -22 55
-32 77 -74 167 -15 30 -26 68 -26 84 0 16 -8 41 -19 55 -10 15 -21 50 -24 77
-10 76 -32 177 -46 203 -16 31 -41 163 -41 220 0 26 -7 69 -15 96 -8 27 -14
72 -14 101 1 28 -3 60 -9 71 -5 10 -13 51 -17 90 -5 56 -3 78 9 102 12 24 16
62 16 164 0 88 5 148 14 178 36 111 46 156 46 201 0 39 5 55 30 82 21 24 30
45 30 69 0 54 26 140 63 209 19 35 40 86 46 113 7 27 26 74 43 105 90 163 195
327 239 372 28 29 57 68 65 87 24 57 82 139 122 172 20 16 60 60 87 97 44 58
245 273 358 384 22 20 53 40 70 43 18 4 50 24 72 45 69 65 198 159 255 185 30
13 77 45 103 70 26 25 54 46 62 46 7 0 40 23 72 50 32 28 83 62 113 76 56 26
119 65 155 95 11 9 40 27 65 40 25 13 52 29 60 35 8 7 47 20 85 29 82 20 145
45 145 56 0 5 19 13 41 19 23 6 49 15 58 20 56 30 154 70 172 70 11 0 48 11
82 24 87 34 171 58 188 55 15 -3 131 33 186 57 17 8 43 14 58 14 14 0 36 5 47
11 23 12 145 28 263 35 39 2 113 8 165 14 52 6 118 13 145 15 28 3 145 7 260
9 116 3 221 9 235 15 14 5 41 7 60 3 19 -3 85 -5 145 -4z m220 -359 c17 -6 94
-12 172 -15 78 -2 153 -8 168 -14 14 -5 41 -10 60 -10 19 0 46 -5 62 -11 15
-6 60 -15 98 -20 72 -9 146 -20 250 -39 33 -6 81 -14 106 -18 25 -5 58 -17 75
-28 16 -12 47 -26 69 -32 51 -13 103 -32 135 -47 14 -7 43 -18 65 -25 40 -12
107 -41 157 -66 14 -8 32 -14 40 -14 7 0 41 -18 76 -40 34 -22 75 -43 90 -46
42 -11 173 -73 209 -100 17 -13 38 -24 45 -24 7 0 36 -18 63 -40 28 -22 61
-46 75 -53 40 -20 168 -106 175 -117 4 -6 31 -26 60 -45 30 -19 66 -48 81 -65
15 -17 47 -40 71 -52 24 -12 90 -69 147 -127 57 -58 132 -134 167 -167 76 -73
113 -118 163 -199 21 -33 50 -73 65 -90 16 -16 38 -48 51 -70 13 -22 37 -56
54 -75 39 -44 106 -181 140 -284 9 -27 28 -72 41 -101 14 -28 25 -65 25 -81 0
-16 11 -46 25 -66 13 -20 28 -55 31 -79 4 -24 13 -54 21 -68 7 -14 13 -33 13
-42 0 -9 7 -32 15 -51 31 -75 42 -178 61 -551 4 -84 1 -148 -10 -220 -8 -56
-18 -120 -20 -142 -10 -92 -75 -343 -121 -470 -20 -55 -46 -129 -57 -165 -11
-36 -31 -85 -43 -110 -51 -101 -76 -144 -100 -176 -14 -18 -25 -37 -25 -42 0
-5 -34 -55 -75 -111 -41 -55 -75 -103 -75 -106 0 -17 -222 -265 -238 -265 -6
0 -31 -25 -55 -54 -25 -30 -80 -84 -123 -120 -44 -35 -91 -75 -106 -89 -14
-13 -50 -42 -80 -63 -29 -21 -55 -41 -58 -45 -16 -21 -186 -142 -245 -174 -39
-21 -95 -55 -125 -74 -67 -44 -69 -45 -203 -121 -59 -34 -127 -68 -150 -76
-23 -8 -53 -22 -67 -32 -14 -9 -50 -25 -80 -35 -30 -10 -95 -37 -145 -61 -112
-53 -146 -66 -211 -77 -29 -5 -76 -20 -105 -34 -30 -14 -67 -25 -84 -25 -16 0
-59 -8 -95 -19 -93 -27 -156 -41 -190 -41 -17 0 -41 -6 -53 -14 -21 -13 -139
-32 -277 -45 -36 -3 -70 -9 -76 -13 -5 -4 -73 -12 -150 -17 -76 -6 -155 -16
-174 -21 -20 -6 -114 -10 -215 -8 -99 1 -243 2 -320 2 -77 1 -149 6 -160 12
-11 5 -92 11 -180 13 -103 1 -178 7 -209 17 -27 8 -68 14 -90 14 -23 0 -50 7
-60 15 -12 9 -42 15 -77 15 -32 0 -70 5 -86 11 -15 7 -48 16 -73 20 -96 18
-233 50 -273 65 -23 9 -75 24 -116 34 -40 11 -81 26 -90 34 -14 13 -39 21
-130 43 -14 3 -39 15 -56 27 -40 27 -116 60 -188 81 -32 9 -74 27 -94 41 -20
13 -40 24 -45 24 -17 0 -133 58 -167 84 -19 14 -41 26 -48 26 -7 0 -32 17 -56
39 -23 21 -62 49 -87 61 -87 44 -225 157 -390 319 -54 53 -131 127 -171 165
-41 38 -94 94 -119 125 -25 30 -62 73 -82 95 -21 23 -43 55 -48 72 -6 17 -34
51 -62 74 -27 24 -57 59 -65 79 -8 19 -30 54 -49 77 -19 22 -34 45 -34 49 0
10 -55 137 -77 180 -9 17 -27 50 -41 75 -13 25 -30 68 -38 95 -28 106 -61 221
-71 245 -25 58 -54 179 -48 203 4 15 1 34 -8 49 -19 30 -42 319 -33 413 7 67
8 98 5 183 -4 101 29 309 53 339 6 7 16 41 24 75 7 35 27 101 44 148 18 47 35
101 37 120 3 19 16 46 28 60 13 14 28 44 34 66 6 23 22 58 36 78 14 20 25 39
25 41 0 2 25 39 55 82 30 43 64 96 76 118 12 22 35 55 50 73 16 18 29 39 29
46 0 8 7 20 16 27 9 8 27 30 40 51 13 20 32 45 42 55 10 10 58 63 107 118 101
115 231 243 325 319 36 30 76 65 89 80 14 14 29 26 34 26 11 0 117 88 135 113
7 9 37 33 65 52 29 19 86 57 127 84 41 28 78 51 82 51 3 0 41 23 83 50 41 28
88 56 103 63 15 6 41 22 58 34 43 32 170 93 194 93 10 0 22 4 25 10 8 13 93
50 116 50 11 0 50 18 87 41 37 22 87 44 112 48 25 5 62 15 84 24 21 10 49 17
62 17 13 0 56 15 96 34 40 18 98 37 128 41 30 4 67 14 82 21 15 8 40 14 57 14
16 0 42 5 58 11 15 6 62 15 103 20 41 4 107 13 145 20 39 7 97 11 130 11 33
-1 89 5 124 14 35 8 116 17 180 20 131 5 325 15 328 17 7 7 415 -6 438 -14z"/>
<path d="M4337 6360 c-50 -9 -62 -22 -47 -50 6 -12 15 -42 20 -68 19 -98 30
-143 42 -165 15 -26 36 -80 48 -122 15 -52 67 -198 88 -246 21 -49 38 -59 100
-59 64 0 79 20 139 185 16 44 35 96 42 115 8 19 22 62 33 95 11 33 28 78 38
100 43 97 71 177 67 189 -3 7 -27 16 -54 19 -26 4 -58 9 -70 13 -28 8 -63 -27
-63 -63 0 -28 -18 -87 -34 -111 -5 -8 -12 -39 -16 -70 -10 -68 -61 -214 -77
-219 -21 -7 -41 26 -41 70 1 23 -5 54 -13 67 -31 56 -52 134 -75 271 -9 54
-41 66 -127 49z"/>
<path d="M5353 6320 c-24 -10 -48 -80 -63 -183 -5 -34 -18 -107 -30 -162 -11
-55 -25 -125 -30 -155 -5 -30 -14 -81 -21 -113 -7 -37 -8 -62 -2 -68 6 -6 48
-17 94 -25 46 -9 102 -20 124 -25 22 -5 85 -17 140 -25 55 -9 123 -19 150 -23
28 -5 53 -7 58 -4 11 6 37 72 37 94 0 10 -8 22 -17 27 -23 11 -107 29 -198 42
-38 6 -101 15 -139 21 -39 5 -76 15 -83 21 -18 14 -16 53 2 68 8 7 15 20 15
30 0 9 9 25 19 35 18 15 26 16 73 5 29 -7 71 -18 93 -25 68 -22 93 -25 118
-16 20 8 25 18 31 66 8 71 -2 85 -61 85 -67 0 -185 30 -210 53 -27 24 -29 47
-8 87 13 25 21 30 54 30 21 0 56 -7 76 -16 27 -11 52 -14 86 -9 42 6 53 3 91
-23 54 -36 98 -46 126 -26 23 16 37 63 28 92 -8 23 -152 82 -201 82 -19 0 -36
4 -39 9 -3 5 -23 12 -43 16 -21 4 -42 10 -48 15 -5 4 -37 10 -70 14 -33 4 -76
9 -95 11 -19 3 -45 1 -57 -5z"/>
<path d="M3837 6290 c-72 -6 -116 -39 -151 -114 -14 -30 -36 -67 -49 -83 -13
-15 -36 -54 -53 -85 -31 -61 -51 -73 -58 -35 -7 33 -17 125 -21 185 -5 71 -18
86 -69 79 -56 -8 -72 -31 -69 -98 4 -87 24 -210 59 -356 8 -34 14 -71 14 -83
0 -12 8 -54 17 -92 20 -85 40 -103 96 -87 58 16 69 32 52 80 -8 22 -15 68 -17
102 -2 56 1 67 26 100 16 20 35 37 43 37 13 0 64 -49 201 -193 48 -50 71 -58
138 -51 57 7 84 23 84 51 0 9 -70 84 -155 167 -168 164 -173 173 -137 239 31
57 88 142 116 171 48 53 27 75 -67 66z"/>
<path d="M2952 6090 c-26 -24 -29 -75 -7 -104 8 -11 15 -31 15 -44 0 -13 6
-38 14 -55 7 -18 22 -54 31 -82 10 -27 31 -70 46 -95 31 -51 50 -98 74 -185
24 -87 27 -90 73 -88 65 3 85 18 79 60 -3 19 -15 53 -26 76 -11 23 -24 60 -30
82 -6 22 -17 49 -24 60 -8 11 -17 34 -21 50 -7 28 -34 91 -77 177 -11 20 -19
47 -19 60 0 13 -10 41 -23 63 -27 49 -69 58 -105 25z"/>
<path d="M6340 6023 c-17 -7 -49 -44 -50 -58 0 -6 -16 -35 -36 -65 -20 -30
-53 -86 -73 -125 -21 -38 -44 -83 -53 -100 -34 -63 -108 -221 -108 -231 0 -16
41 -49 78 -64 29 -11 35 -10 52 5 11 10 20 24 20 31 0 19 59 147 77 166 25 28
75 23 107 -11 15 -16 40 -31 56 -34 22 -5 32 -16 45 -51 16 -42 16 -47 0 -93
-9 -26 -26 -64 -36 -84 -31 -60 -26 -83 32 -129 55 -43 61 -45 90 -30 13 8 19
21 19 46 0 19 7 48 15 63 23 46 36 145 22 180 -15 41 -1 56 37 41 23 -8 35 -6
69 12 67 35 85 57 107 123 20 62 21 63 2 110 -18 45 -104 145 -126 145 -5 0
-17 6 -25 14 -28 24 -245 133 -276 139 -16 3 -37 3 -45 0z m126 -198 c10 -8
27 -15 37 -15 9 0 40 -22 67 -48 41 -40 50 -54 50 -83 0 -72 -31 -74 -155 -11
-38 19 -80 40 -92 46 -36 18 -35 44 4 87 38 42 58 47 89 24z"/>
<path d="M2345 5825 c-108 -54 -163 -108 -193 -188 -29 -75 -28 -83 11 -147
24 -40 45 -61 85 -83 49 -26 56 -28 110 -19 59 10 82 17 192 59 36 14 90 27
121 30 51 5 58 3 69 -17 28 -52 -18 -121 -109 -162 -59 -26 -74 -29 -152 -26
-100 3 -111 -2 -129 -68 -11 -38 -11 -48 2 -60 23 -23 105 -28 174 -10 34 9
74 16 90 16 15 0 48 13 73 29 25 16 56 32 68 35 22 7 68 59 116 131 22 33 27
51 27 105 0 78 -20 116 -81 157 -38 25 -51 28 -123 27 -64 -1 -94 -6 -143 -27
-34 -15 -69 -27 -76 -27 -8 0 -26 -9 -40 -20 -30 -24 -77 -35 -111 -26 -29 7
-43 56 -28 96 27 70 107 104 242 102 81 -1 99 8 126 60 19 36 19 35 -18 58
-27 16 -50 20 -123 20 -86 -1 -94 -3 -180 -45z"/>
<path d="M7173 5373 c-167 -173 -313 -320 -348 -351 -33 -29 -37 -36 -31 -65
4 -19 19 -42 38 -57 18 -14 106 -99 197 -189 136 -136 169 -164 193 -164 38 0
56 20 62 67 7 49 -4 69 -68 125 -83 73 -206 205 -206 221 0 8 17 35 38 59 l39
45 37 -23 c20 -13 48 -41 62 -63 40 -64 95 -118 118 -118 25 0 57 25 81 63 16
25 16 29 0 55 -9 15 -52 61 -96 102 -64 62 -77 80 -72 98 6 24 52 62 76 62 12
0 57 -30 102 -68 6 -5 52 -56 104 -115 l94 -106 28 15 c65 33 74 97 20 151
-15 16 -70 69 -122 120 -52 50 -119 119 -150 152 -80 86 -98 85 -196 -16z"/>
<path d="M1664 5267 c-45 -41 -41 -63 19 -103 23 -15 74 -60 114 -98 39 -39
94 -91 121 -116 86 -77 107 -159 56 -219 -14 -17 -32 -31 -39 -31 -7 0 -18 -7
-25 -15 -27 -32 -71 -18 -161 53 -150 118 -184 146 -224 190 -41 46 -81 71
-105 65 -21 -5 -60 -65 -60 -92 0 -23 19 -44 105 -113 65 -52 184 -168 196
-191 6 -9 36 -31 69 -47 103 -52 202 -37 297 45 152 130 171 335 40 427 -18
12 -69 54 -113 93 -191 165 -216 185 -235 185 -11 0 -36 -15 -55 -33z"/>
<path d="M4294 5172 c-23 -15 -26 -54 -9 -99 15 -40 16 -47 3 -60 -13 -13 -21
-11 -62 17 -57 39 -87 37 -100 -7 -12 -43 9 -74 69 -103 45 -22 52 -40 14 -40
-24 0 -79 -52 -79 -74 0 -13 46 -46 65 -46 3 0 25 18 50 41 24 22 49 38 55 34
5 -3 10 -32 10 -64 0 -62 11 -81 47 -81 38 0 63 34 63 85 0 56 17 65 59 34 28
-21 31 -21 55 -5 33 21 44 62 22 84 -8 9 -37 19 -63 22 -69 7 -69 30 1 75 59
37 69 60 40 89 -21 22 -38 20 -85 -10 -48 -30 -69 -21 -69 32 0 56 -16 84 -47
84 -16 0 -33 -4 -39 -8z"/>
<path d="M7858 4730 c-15 -4 -42 -19 -60 -32 -18 -14 -40 -28 -48 -32 -8 -3
-35 -18 -60 -33 -25 -14 -58 -33 -75 -42 -16 -9 -48 -28 -70 -42 -41 -25 -60
-35 -184 -91 -79 -35 -94 -54 -80 -102 21 -73 84 -96 142 -52 18 13 61 40 97
59 114 60 134 72 177 100 24 15 45 27 48 27 14 0 192 113 208 131 26 32 21 64
-14 93 -32 28 -39 29 -81 16z"/>
<path d="M5046 4505 c-73 -39 -195 -174 -196 -216 0 -15 -8 -37 -18 -49 -20
-24 39 -21 -587 -33 -115 -2 -214 -5 -220 -7 -31 -8 -46 4 -70 56 -31 65 -78
120 -137 160 -24 16 -56 39 -71 51 -24 19 -41 23 -99 23 -76 0 -109 -13 -166
-65 -54 -48 -72 -94 -72 -177 0 -68 2 -75 33 -108 58 -63 84 -74 167 -74 56 0
82 4 102 18 16 10 35 16 43 12 25 -9 18 -69 -14 -113 -16 -22 -43 -69 -61
-104 -18 -36 -59 -92 -94 -129 -35 -36 -69 -76 -76 -89 -7 -14 -25 -35 -41
-49 -16 -13 -29 -29 -29 -36 0 -6 -11 -28 -26 -49 -36 -54 -63 -167 -64 -265
0 -50 -6 -97 -15 -119 -21 -49 -19 -128 4 -194 44 -124 136 -293 191 -351 30
-32 59 -58 66 -58 6 0 29 -13 52 -30 23 -16 68 -39 102 -50 56 -19 100 -38
225 -96 100 -46 164 -74 173 -74 5 0 19 -11 32 -25 13 -14 28 -25 33 -25 6 0
18 -7 28 -16 15 -13 41 -16 132 -16 126 0 152 8 200 62 25 27 34 31 60 26 83
-16 115 -18 121 -7 4 6 18 11 31 11 13 0 44 18 71 43 78 69 145 117 164 117
26 0 85 26 100 44 7 9 20 16 28 16 9 0 30 13 47 29 16 17 42 36 57 44 63 32
201 204 234 292 52 134 54 146 54 242 0 102 -23 226 -47 254 -7 8 -13 29 -13
46 0 17 -8 37 -19 47 -11 10 -25 32 -32 49 -7 18 -25 48 -41 68 -16 22 -28 49
-28 67 0 48 -9 61 -66 97 -30 19 -54 40 -54 47 0 7 -20 42 -45 77 -25 36 -45
72 -45 81 0 9 -27 41 -60 73 -51 48 -60 61 -60 92 0 43 11 44 60 5 37 -29 43
-31 144 -33 l105 -2 35 34 c48 46 70 118 57 181 -12 57 -46 112 -82 134 -15 9
-74 27 -130 41 -57 14 -113 27 -124 30 -11 3 -33 -1 -49 -10z m181 -127 c48
-21 73 -49 73 -84 0 -66 -101 -102 -136 -49 -17 26 -16 40 8 108 14 41 16 42
55 25z m-1509 -52 c2 -3 1 -13 -2 -23 -7 -23 -41 -44 -86 -54 -19 -5 -47 -11
-61 -14 -34 -9 -44 16 -24 55 15 28 25 33 85 44 26 4 80 -1 88 -8z m1083 -243
c31 -39 49 -83 49 -122 0 -28 10 -56 30 -89 17 -27 30 -54 30 -60 0 -7 14 -34
30 -61 93 -150 168 -309 182 -380 10 -58 4 -175 -13 -218 -11 -30 -65 -97
-136 -170 l-52 -53 -65 0 c-55 0 -66 3 -71 19 -3 10 -19 24 -35 31 -40 16 -51
56 -57 205 -7 152 -7 156 1 240 3 38 -1 144 -8 235 -10 108 -12 190 -6 238 4
40 6 81 3 91 -3 11 4 21 21 29 14 6 26 17 26 25 0 19 29 57 44 57 7 0 19 -8
27 -17z m169 -46 c0 -10 8 -31 19 -45 26 -39 35 -91 15 -99 -23 -9 -61 34 -67
75 -3 20 -9 60 -13 87 l-7 50 27 -24 c14 -14 26 -33 26 -44z m-873 31 c6 -5
16 -30 21 -56 12 -54 26 -328 24 -447 -1 -44 2 -91 8 -105 8 -23 17 -143 24
-350 l3 -75 -69 -67 c-38 -38 -78 -68 -88 -68 -31 0 -102 31 -140 61 -20 15
-52 35 -72 45 -70 33 -96 161 -58 285 12 40 28 82 36 93 8 11 14 29 14 40 0
21 18 60 80 171 21 39 39 79 39 90 1 12 5 25 10 30 15 18 40 148 47 249 7 98
7 98 38 112 31 13 60 10 83 -8z m-332 -334 c0 -12 -8 -20 -22 -22 -25 -4 -31
16 -11 36 17 17 33 10 33 -14z m515 -95 c0 -10 -7 -19 -15 -19 -15 0 -21 31
-9 43 11 10 24 -3 24 -24z m90 -9 c0 -11 -4 -20 -9 -20 -14 0 -23 18 -16 30
10 17 25 11 25 -10z m-728 -48 c-7 -9 -16 -27 -22 -39 -6 -15 -15 -21 -25 -17
-22 9 -19 28 11 64 19 22 30 28 38 20 8 -8 7 -15 -2 -28z m-94 -134 c-5 -15
-35 -34 -43 -27 -3 4 -3 14 1 23 7 18 48 23 42 4z m1862 -183 c21 -22 22 -28
10 -52 l-13 -28 -11 26 c-6 14 -17 33 -24 42 -13 16 -9 37 7 37 4 0 18 -11 31
-25z m18 -133 c11 -31 9 -37 -21 -72 -39 -47 -53 -38 -34 21 8 24 18 57 21 73
8 33 18 26 34 -22z m-1933 -52 c0 -18 -6 -26 -23 -28 -13 -2 -25 3 -28 12 -10
26 4 48 28 44 17 -2 23 -10 23 -28z m1865 -175 c0 -30 -20 -33 -43 -7 -20 22
-13 32 20 32 18 0 23 -5 23 -25z m-937 -10 c40 -19 89 -15 139 11 41 21 67 18
80 -12 29 -64 -55 -92 -283 -93 -180 -1 -201 6 -180 56 18 45 63 64 141 59 36
-1 82 -11 103 -21z m-841 -80 c36 -30 47 -31 100 -5 58 28 63 25 33 -15 -15
-19 -25 -42 -23 -52 4 -24 54 -29 78 -8 10 9 24 14 29 10 15 -8 14 -38 -1 -53
-17 -17 0 -30 47 -34 37 -3 40 -6 47 -38 3 -19 9 -45 13 -57 11 -35 -20 -40
-94 -13 -36 12 -73 28 -81 35 -8 7 -20 14 -27 16 -6 2 -47 39 -92 81 -77 73
-100 111 -87 143 8 21 24 19 58 -10z m1753 16 c7 -13 -100 -127 -125 -134 -22
-6 -53 19 -47 37 2 6 18 15 35 20 24 7 32 15 32 32 0 12 -6 26 -12 31 -8 5 4
10 32 14 72 10 78 10 85 0z m-214 -151 c10 -6 19 -18 19 -28 0 -24 -113 -79
-177 -85 -54 -6 -64 1 -55 37 5 18 27 19 89 0 20 -5 25 0 43 40 20 48 40 57
81 36z m-905 -216 c-5 -13 -10 -14 -18 -6 -6 6 -8 18 -4 28 5 13 10 14 18 6 6
-6 8 -18 4 -28z m272 8 c2 -12 -6 -38 -18 -57 -44 -71 -124 -29 -94 49 4 10
14 13 33 10 18 -4 32 0 41 10 17 21 34 15 38 -12z m242 0 c13 -11 20 -24 16
-30 -10 -17 -81 -15 -96 3 -33 40 36 63 80 27z"/>
<path d="M2513 4404 c-18 -8 -33 -19 -33 -24 0 -6 -37 -52 -83 -103 -93 -103
-127 -149 -127 -169 0 -7 -12 -30 -26 -51 -34 -51 -64 -140 -64 -192 0 -31 8
-53 30 -83 30 -42 31 -66 4 -76 -49 -19 -53 -196 -7 -288 25 -50 86 -101 176
-146 45 -23 58 -38 99 -107 27 -44 48 -92 48 -107 0 -15 5 -39 10 -54 7 -18 7
-31 1 -37 -14 -14 -117 40 -150 79 -14 17 -41 41 -59 54 -17 13 -42 44 -54 69
-12 25 -39 68 -60 95 -21 27 -38 54 -38 60 0 24 -50 84 -84 100 -32 15 -39 15
-72 1 -21 -8 -66 -15 -105 -15 -49 0 -80 -6 -105 -19 -20 -11 -65 -23 -100
-26 -60 -7 -66 -10 -94 -48 -23 -32 -27 -44 -19 -59 9 -17 17 -19 69 -13 44 5
65 3 89 -10 17 -9 30 -19 27 -23 -9 -15 -133 -72 -168 -77 -43 -7 -54 -28 -38
-71 11 -27 56 -73 73 -74 4 0 38 -26 75 -58 83 -71 135 -91 198 -74 24 7 53
12 64 12 11 0 47 20 80 44 69 51 101 60 171 51 57 -8 76 -30 55 -61 -11 -15
-11 -23 -3 -35 12 -16 100 -59 121 -59 6 0 47 -18 89 -40 43 -22 88 -39 100
-37 14 1 22 -4 22 -13 0 -24 -65 -24 -121 1 -27 12 -69 26 -94 30 -25 4 -67
12 -95 17 -69 12 -282 7 -325 -8 -19 -7 -48 -18 -63 -23 -59 -21 -107 -90 -93
-134 7 -22 59 -78 93 -100 33 -22 79 6 103 61 10 24 24 48 32 52 26 17 182 44
192 34 12 -12 -21 -50 -45 -50 -20 0 -55 -39 -83 -92 -17 -30 -18 -41 -8 -62
10 -23 18 -26 62 -26 50 0 53 2 129 74 85 81 118 94 209 82 64 -8 163 -39 159
-50 -1 -4 -40 -9 -86 -11 -73 -2 -87 -6 -124 -31 -71 -50 -78 -135 -12 -153
47 -13 73 -5 116 36 45 43 115 66 161 52 18 -5 47 -9 64 -9 17 0 42 -8 55 -18
13 -11 65 -38 114 -61 50 -23 100 -47 111 -54 39 -22 94 -76 94 -92 0 -28 -44
-16 -75 20 -28 33 -34 35 -100 37 -66 3 -70 2 -73 -19 -4 -25 74 -115 117
-136 37 -18 35 -51 -4 -54 -90 -8 -139 -26 -176 -64 -49 -51 -55 -71 -32 -110
15 -26 76 -69 98 -69 3 0 39 34 80 75 74 74 116 98 138 76 8 -8 5 -17 -9 -33
-26 -30 -54 -93 -54 -122 0 -33 32 -58 84 -63 38 -5 46 -2 59 18 8 13 21 51
28 84 15 72 18 77 84 121 60 39 79 41 120 14 21 -14 47 -20 85 -20 30 0 72 -6
95 -14 22 -8 53 -17 68 -21 46 -9 20 -25 -42 -25 -47 0 -73 -7 -128 -34 -74
-37 -91 -59 -85 -113 7 -70 95 -65 165 9 21 22 43 38 50 35 18 -6 20 -42 2
-57 -8 -7 -15 -28 -15 -50 0 -38 17 -60 54 -74 31 -11 114 15 144 46 40 41
119 56 180 35 26 -8 88 -27 137 -42 50 -14 104 -31 120 -37 85 -32 211 -23
295 21 23 12 50 19 60 16 11 -3 39 3 64 15 25 11 55 20 68 20 13 1 34 7 48 15
14 8 37 14 51 15 15 0 44 7 65 16 33 14 79 19 142 15 8 -1 12 -18 12 -51 0
-38 5 -54 22 -70 25 -23 41 -25 104 -8 60 16 74 38 67 106 -5 52 -6 52 -40 52
-37 0 -53 21 -33 45 22 26 49 14 109 -46 35 -35 64 -49 99 -49 66 0 85 84 31
136 -30 28 -33 29 -160 34 -116 4 -132 3 -146 -12 -9 -10 -28 -18 -42 -18 -26
0 -71 38 -71 59 0 6 10 9 23 7 70 -15 101 -16 138 -5 23 7 43 19 46 26 3 7 20
13 39 13 19 0 42 4 52 9 9 5 36 17 60 27 l43 17 32 -31 c18 -18 40 -32 48 -32
21 0 53 -37 69 -80 7 -19 22 -50 32 -67 17 -29 25 -33 59 -33 22 0 49 5 60 10
22 12 49 61 49 90 0 23 17 25 44 5 45 -34 147 -5 176 50 12 22 11 28 -8 48
l-22 23 25 24 c27 26 34 80 13 98 -7 5 -39 13 -71 17 -48 5 -65 3 -98 -14 -22
-12 -50 -21 -62 -21 -12 -1 -32 -6 -45 -13 -29 -17 -148 -5 -169 16 -13 13
-11 17 15 36 17 11 45 21 64 21 18 0 54 11 80 25 26 14 55 25 65 25 9 0 35 12
57 27 31 22 52 28 95 29 31 1 75 5 98 9 56 10 87 1 101 -30 6 -14 30 -45 52
-69 44 -48 89 -63 134 -46 21 8 26 16 26 45 0 23 -9 49 -24 68 -13 18 -28 46
-33 62 -8 25 -16 31 -50 35 -22 4 -53 14 -68 24 -25 16 -26 20 -11 28 11 6 25
4 44 -5 15 -7 42 -21 60 -30 19 -9 44 -14 60 -11 35 7 77 -25 85 -64 8 -42 54
-92 83 -92 26 0 71 24 92 49 16 20 15 76 -2 109 -32 60 -138 126 -224 139 -43
7 -48 19 -17 39 20 13 39 15 107 9 131 -11 148 -18 219 -91 96 -98 134 -112
197 -74 37 23 41 46 12 83 -11 14 -20 29 -20 33 0 5 -19 28 -42 51 -35 36 -48
43 -81 43 -37 0 -81 18 -119 48 -14 12 -38 12 -140 3 -68 -7 -136 -16 -153
-21 -16 -5 -50 -10 -75 -12 -40 -3 -45 -1 -42 17 4 29 68 81 116 95 23 6 56
19 74 28 33 16 34 16 58 -16 31 -39 49 -40 80 -7 15 16 34 25 53 25 60 0 81
-23 36 -40 -14 -5 -25 -13 -25 -17 0 -9 68 -48 73 -42 2 2 11 16 20 32 20 31
42 34 68 11 16 -15 20 -14 43 3 26 18 36 66 16 78 -17 10 -11 53 8 59 15 5
117 -5 214 -20 56 -9 86 2 129 49 38 40 42 42 117 48 127 11 177 56 177 159 0
58 -34 106 -85 120 -19 5 -54 28 -77 50 -27 25 -52 40 -67 40 -16 0 -31 9 -41
23 -32 50 -72 69 -143 68 -36 0 -75 -7 -86 -14 -12 -7 -43 -21 -71 -32 -27
-10 -69 -31 -93 -46 -24 -16 -46 -29 -49 -29 -10 0 -112 -82 -168 -135 -29
-27 -92 -77 -140 -110 -48 -33 -99 -70 -114 -82 -16 -12 -31 -20 -35 -16 -11
12 -6 41 9 47 8 3 15 10 15 16 0 6 15 31 34 56 19 25 47 72 62 104 20 43 35
62 57 71 44 19 168 119 209 170 19 24 50 73 67 108 28 56 33 78 37 159 5 87 3
98 -21 146 l-27 53 20 39 c96 189 94 235 -11 288 -32 17 -42 18 -58 8 -28 -18
-39 -7 -39 38 0 42 -20 68 -75 97 -27 14 -101 32 -149 36 -26 3 -56 -58 -56
-112 l0 -44 -35 6 c-26 4 -43 0 -70 -19 -20 -13 -40 -24 -46 -24 -5 0 -18 -15
-29 -32 -23 -39 -26 -104 -6 -151 15 -38 116 -143 146 -152 28 -9 26 -43 -4
-51 -51 -12 -98 -125 -77 -185 6 -18 11 -51 11 -74 0 -26 6 -48 15 -55 8 -7
15 -17 15 -23 0 -5 11 -34 25 -63 14 -30 25 -66 25 -81 0 -16 2 -42 6 -60 5
-25 0 -43 -23 -80 -16 -26 -33 -60 -36 -74 -4 -14 -19 -43 -33 -65 -15 -21
-36 -59 -47 -84 -22 -51 -54 -90 -74 -90 -17 0 -16 33 2 94 8 27 15 63 15 79
0 17 12 50 26 75 l26 45 -10 121 c-10 117 -23 189 -45 250 -36 99 -190 187
-251 143 -14 -10 -15 -17 -6 -41 6 -16 23 -41 38 -56 45 -46 80 -86 133 -152
41 -51 49 -68 45 -91 -3 -15 -1 -37 5 -50 13 -29 -1 -139 -18 -144 -7 -3 -17
6 -22 19 -5 13 -18 50 -30 83 -48 131 -54 138 -131 177 -43 23 -53 22 -73 0
-36 -39 -13 -97 89 -223 55 -68 67 -90 74 -135 5 -30 11 -58 15 -63 8 -14 -6
-41 -21 -41 -8 0 -14 10 -14 24 0 32 -44 116 -73 138 -34 27 -71 22 -101 -13
-14 -17 -26 -35 -26 -40 0 -11 48 -99 86 -161 38 -60 40 -83 10 -129 -22 -33
-27 -53 -30 -120 -3 -72 -7 -86 -35 -125 -17 -25 -31 -48 -31 -53 0 -4 -18
-33 -40 -64 -29 -41 -47 -57 -68 -59 -18 -2 -31 -12 -40 -31 -12 -25 -52 -39
-52 -18 0 14 29 79 37 83 13 5 43 65 43 85 0 11 7 28 15 39 35 46 4 234 -39
234 -17 0 -41 -22 -57 -51 -14 -26 -13 -132 1 -158 13 -25 6 -41 -19 -41 -10
0 -29 -8 -42 -18 -23 -18 -25 -18 -52 -2 -24 15 -26 19 -12 30 14 12 13 16
-11 42 -33 34 -41 34 -70 7 -21 -20 -22 -27 -17 -103 5 -79 4 -84 -27 -141
-18 -33 -40 -68 -48 -78 -16 -18 -112 -67 -134 -67 -7 0 -21 -11 -33 -24 -23
-28 -108 -76 -133 -76 -9 0 -26 16 -37 36 -29 52 -77 69 -191 67 -85 -1 -134
-13 -134 -32 0 -4 21 -23 46 -41 36 -26 60 -34 110 -39 80 -9 104 -28 104 -86
0 -48 -24 -76 -103 -119 -85 -46 -115 -30 -132 74 -4 25 -13 52 -20 60 -7 8
-15 24 -19 35 -12 40 -126 94 -202 94 -57 1 -67 -8 -118 -111 -28 -56 -28 -59
-15 -122 10 -53 10 -68 -1 -80 -17 -21 -43 -20 -87 4 -21 11 -45 20 -55 20
-27 0 -105 37 -111 52 -3 8 8 36 24 61 16 26 34 67 41 92 11 39 10 46 -7 65
-12 13 -31 20 -56 20 -39 0 -58 -18 -105 -96 -10 -17 -12 -17 -41 2 -18 10
-51 35 -75 55 -24 20 -70 51 -103 69 -67 37 -91 58 -105 94 -5 14 -22 33 -37
43 -40 25 -44 33 -38 78 5 34 1 48 -26 88 -17 26 -35 47 -40 47 -18 0 -69 -30
-69 -40 0 -23 -26 -7 -42 26 -12 24 -18 58 -18 109 0 68 -2 76 -27 100 -71 65
-110 2 -92 -152 6 -57 6 -90 -1 -104 -10 -18 -14 -17 -61 23 -27 24 -52 54
-56 68 -3 14 -12 33 -20 42 -49 56 -55 179 -17 318 15 52 29 105 31 118 8 32
-29 68 -77 76 -60 9 -90 26 -90 51 0 22 48 74 88 94 18 9 22 20 22 56 0 53
-11 62 -47 38 -68 -44 -133 -130 -133 -176 0 -20 -31 -51 -40 -40 -5 4 -3 58
2 118 11 122 29 165 80 191 16 9 61 47 99 86 74 75 81 95 54 148 -19 37 -50
39 -67 6 -7 -14 -29 -35 -48 -48 -20 -13 -46 -45 -61 -74 -14 -28 -37 -66 -51
-85 -45 -60 -61 -102 -75 -197 -7 -51 -15 -97 -18 -103 -17 -27 -105 10 -105
44 2 126 44 247 133 378 16 25 16 30 1 95 -21 90 -19 157 8 225 27 67 36 183
16 207 -8 9 -21 34 -31 54 -9 21 -30 56 -47 79 -19 27 -30 54 -30 75 0 80 -54
175 -98 173 -9 0 -32 -7 -49 -15z m4018 -308 c6 -32 8 -64 5 -72 -8 -22 -32
-16 -44 11 -15 33 -26 120 -18 141 12 31 45 -15 57 -80z m-181 -55 c0 -6 20
-24 44 -41 49 -36 79 -97 74 -152 -4 -47 -34 -50 -52 -6 -8 18 -33 48 -55 66
-35 28 -41 38 -41 72 0 21 3 45 6 54 7 17 24 22 24 7z m360 -48 c0 -44 -95
-141 -126 -129 -13 5 -11 12 10 39 14 19 26 41 26 49 0 16 36 53 60 60 20 7
30 0 30 -19z m-4335 -50 c11 -18 30 -49 42 -68 14 -22 23 -55 25 -88 3 -45 1
-52 -16 -52 -23 0 -74 87 -75 126 -1 15 -12 37 -26 50 -13 13 -25 34 -25 47 0
36 49 26 75 -15z m4293 -246 c26 -70 17 -150 -21 -200 -15 -20 -27 -40 -27
-46 0 -11 -32 -31 -49 -31 -6 0 -15 10 -22 21 -14 27 7 138 28 146 15 6 18 33
3 33 -27 0 5 111 37 129 24 13 29 8 51 -52z m-258 -42 c19 -20 26 -44 35 -123
7 -56 8 -104 4 -114 -5 -9 -9 -26 -9 -37 0 -29 -18 -36 -41 -15 -12 11 -19 31
-19 53 0 20 -7 45 -15 55 -8 11 -15 37 -15 57 0 21 -4 41 -10 44 -14 9 -12 61
2 85 17 27 40 25 68 -5z m-3993 -104 c2 -56 6 -68 32 -95 31 -32 37 -61 22
-100 -7 -17 -10 -16 -44 14 -20 17 -37 40 -37 49 0 10 -11 28 -25 41 -54 51
-69 112 -36 147 16 16 27 19 53 14 33 -7 33 -7 35 -70z m-360 -258 c3 -10 12
-25 20 -35 12 -13 12 -17 1 -24 -32 -20 -108 9 -108 42 0 32 76 46 87 17z
m5075 -90 c21 -19 24 -52 6 -57 -44 -14 -67 -14 -84 -2 -18 14 -18 16 10 45
34 36 42 37 68 14z m-126 -14 c11 -18 -28 -48 -73 -55 -37 -6 -43 -4 -43 11 0
32 30 55 71 55 21 0 41 -5 45 -11z m-5080 -104 c13 -10 33 -13 64 -9 25 3 52
0 60 -5 12 -8 9 -16 -19 -45 -62 -64 -161 -58 -174 11 -3 18 0 34 10 46 20 21
33 22 59 2z m5128 -87 c9 -12 16 -31 16 -42 0 -16 -5 -18 -37 -12 -21 4 -57
10 -81 13 -27 4 -48 13 -57 26 -20 28 -7 34 75 36 61 1 70 -1 84 -21z m-4343
-51 c7 -12 7 -23 1 -29 -9 -9 -42 41 -42 65 0 13 29 -12 41 -36z m3955 18 c16
-8 48 -32 72 -54 35 -32 43 -46 40 -68 -3 -25 -7 -28 -45 -31 -28 -2 -51 3
-69 14 -16 11 -55 20 -98 23 l-71 6 0 35 c0 31 3 35 30 38 16 2 43 15 60 28
35 28 42 29 81 9z m-219 -111 c7 -18 -20 -44 -44 -44 -20 0 -27 28 -13 45 17
20 49 19 57 -1z m-3728 -199 c35 -40 37 -45 18 -45 -18 0 -107 59 -107 71 0 5
13 9 29 9 21 0 38 -10 60 -35z m3449 -97 c-6 -18 -28 -21 -28 -4 0 9 7 16 16
16 9 0 14 -5 12 -12z m-2890 -242 c29 -15 92 -93 92 -112 0 -25 -38 -15 -60
16 -12 17 -35 37 -51 45 -27 14 -38 43 -22 58 9 9 14 8 41 -7z m190 -188 c-5
-32 -28 -35 -28 -4 0 17 5 26 16 26 10 0 14 -7 12 -22z m2026 -4 c19 -7 21
-35 4 -52 -15 -15 -84 -16 -93 -2 -8 13 13 39 40 50 26 11 30 11 49 4z m-1002
-211 c22 -20 23 -45 2 -99 -23 -59 -46 -62 -89 -11 -50 58 -46 95 10 113 54
16 56 16 77 -3z"/>
<path d="M1038 4383 c-9 -10 -24 -46 -33 -80 -20 -72 -16 -82 56 -136 150
-114 220 -154 287 -163 29 -3 52 -10 52 -14 0 -4 -19 -14 -42 -23 -32 -12 -90
-17 -230 -19 -235 -4 -219 8 -265 -185 -7 -30 36 -69 85 -77 20 -4 53 -13 72
-20 19 -8 64 -21 100 -31 36 -9 79 -21 95 -27 17 -6 50 -14 75 -18 25 -4 89
-19 143 -34 108 -28 130 -25 147 20 12 31 13 94 1 113 -5 7 -31 17 -57 22 -27
4 -85 15 -129 24 -44 8 -105 20 -135 26 -61 11 -65 13 -55 28 4 7 45 11 102
11 53 0 110 4 127 10 17 5 67 13 110 17 69 7 82 11 98 34 11 14 22 44 25 66 4
34 2 42 -19 55 -13 9 -41 21 -62 26 -21 6 -61 28 -89 49 -29 22 -69 49 -89 62
-21 12 -38 27 -38 32 0 5 -9 9 -20 9 -20 0 -38 25 -26 37 3 3 23 -1 43 -10 21
-9 56 -18 78 -22 22 -3 56 -12 75 -19 69 -26 138 -46 158 -46 12 0 28 10 36
22 17 23 21 85 8 103 -15 22 -205 85 -254 85 -17 0 -42 7 -56 15 -15 8 -65 24
-112 36 -169 43 -238 49 -262 22z"/>
<path d="M7757 4043 l-318 -3 -9 -25 c-12 -32 -1 -123 18 -142 11 -11 29 -13
71 -9 31 3 108 8 171 11 63 3 124 6 135 8 14 1 20 -4 20 -17 0 -22 -26 -39
-205 -133 -71 -37 -165 -95 -192 -118 -14 -12 -16 -20 -7 -41 5 -15 7 -47 3
-71 -5 -32 -2 -50 10 -68 l17 -25 197 5 c252 7 483 24 500 37 6 6 12 32 12 59
0 77 -12 81 -223 77 -97 -2 -179 0 -183 5 -13 12 38 58 91 82 28 12 73 38 100
57 28 19 78 50 113 68 88 46 102 67 102 150 0 43 -5 71 -13 78 -20 17 -66 18
-410 15z"/>
<path d="M1346 2689 c-14 -17 -26 -39 -26 -49 0 -26 -12 -31 -48 -20 -25 7
-38 4 -64 -14 -18 -12 -34 -31 -36 -42 -4 -28 44 -84 71 -84 52 -1 51 -18 -1
-44 -40 -20 -52 -32 -52 -49 0 -50 47 -60 125 -27 41 18 46 18 52 4 3 -9 1
-32 -6 -50 -22 -60 5 -93 63 -78 26 6 56 48 56 78 0 23 13 26 53 14 46 -14 84
1 93 37 9 35 -15 60 -74 75 -26 7 -51 16 -56 21 -5 4 19 21 52 38 32 16 62 37
66 46 17 47 -62 89 -94 50 -7 -8 -21 -15 -31 -15 -16 0 -19 8 -19 53 0 63 -19
87 -67 87 -23 0 -39 -9 -57 -31z"/>
<path d="M7525 2644 c-31 -33 -31 -42 0 -88 32 -48 33 -71 3 -61 -13 4 -39 9
-59 12 -31 4 -39 0 -62 -27 -34 -39 -34 -51 0 -90 23 -28 31 -32 65 -27 48 6
59 -10 24 -36 -14 -10 -33 -32 -42 -49 -14 -27 -14 -32 1 -54 31 -48 80 -43
128 12 33 36 57 44 57 18 0 -20 54 -74 74 -74 27 0 46 30 46 74 0 34 -6 48
-30 71 -56 53 -33 77 42 45 41 -17 56 -20 75 -11 25 12 46 52 37 75 -7 17 -64
29 -98 20 -14 -3 -38 -3 -53 1 -26 6 -27 7 -8 17 11 6 37 24 58 40 33 26 37
35 37 73 0 46 -10 55 -57 55 -15 0 -37 -12 -55 -32 l-30 -33 -40 48 c-47 55
-76 60 -113 21z"/>
<path d="M2217 2023 c-16 -15 -6 -76 18 -107 14 -18 25 -39 25 -46 0 -13 -47
-101 -60 -110 -3 -3 -21 -27 -40 -55 -18 -27 -42 -60 -53 -72 -21 -24 -61 -31
-72 -13 -11 18 -51 10 -75 -15 -36 -38 -20 -73 48 -100 28 -12 70 -39 92 -60
32 -31 50 -40 87 -45 37 -4 50 -10 59 -29 14 -27 32 -41 55 -41 9 0 32 -15 52
-34 32 -30 115 -82 224 -140 71 -38 117 24 48 65 -48 29 -57 49 -39 83 8 16
14 38 14 50 0 12 15 40 34 62 31 36 41 53 88 138 10 17 15 41 13 52 -4 17 1
23 25 28 47 9 40 42 -24 105 -68 67 -82 65 -161 -21 -67 -72 -77 -80 -99 -72
-24 9 -21 104 5 155 11 22 19 50 17 61 -3 20 -124 115 -175 137 -11 6 -24 15
-28 20 -7 12 -68 15 -78 4z m109 -354 c-3 -17 -17 -57 -30 -89 -21 -53 -22
-62 -10 -86 11 -20 11 -30 3 -40 -17 -20 -30 -17 -68 18 l-35 31 23 41 c13 23
35 64 49 91 27 53 38 65 61 65 10 0 12 -8 7 -31z m244 -123 c0 -28 -37 -116
-49 -116 -5 0 -18 -22 -30 -50 -12 -27 -23 -50 -25 -50 -2 0 -29 12 -60 26
l-57 26 73 77 c107 111 148 136 148 87z"/>
<path d="M6480 1976 c-48 -10 -80 -25 -155 -74 -11 -7 -45 -24 -75 -38 -91
-42 -105 -51 -115 -79 -8 -22 -6 -29 10 -41 11 -8 29 -14 40 -13 55 4 64 -1
85 -48 48 -105 84 -176 95 -187 35 -37 46 -113 18 -123 -28 -10 -63 -45 -63
-63 0 -19 40 -60 60 -60 7 0 21 6 29 13 9 8 41 24 71 37 30 12 71 33 90 46 19
13 42 24 52 24 21 0 78 68 78 93 0 15 4 17 18 11 45 -19 92 -16 136 10 85 50
112 121 77 200 -17 40 -24 46 -50 46 -22 0 -35 -8 -51 -30 -27 -38 -39 -38
-84 2 -39 34 -45 58 -21 78 21 18 19 86 -5 125 -11 17 -37 39 -57 48 -37 16
-113 38 -123 36 -3 -1 -30 -6 -60 -13z m88 -126 c29 -27 28 -54 -4 -95 -27
-36 -68 -55 -119 -55 -38 0 -49 11 -69 68 -14 39 -14 42 3 42 9 0 27 14 39 30
20 27 28 30 75 30 40 0 59 -5 75 -20z m55 -217 c15 -9 54 -78 59 -105 5 -25 2
-28 -23 -28 -16 0 -38 -9 -49 -20 -11 -11 -26 -20 -33 -20 -22 0 -65 52 -80
98 l-15 42 32 25 c25 21 38 24 66 19 19 -3 38 -8 43 -11z"/>
<path d="M5980 1674 c-114 -22 -270 -88 -270 -113 0 -13 -49 -31 -86 -31 -63
0 -94 -31 -59 -60 11 -9 22 -9 45 -1 58 20 63 11 130 -207 13 -40 27 -75 31
-78 5 -3 9 -23 9 -44 0 -40 -26 -70 -61 -70 -21 0 -49 -32 -49 -57 0 -11 9
-28 20 -38 18 -16 25 -17 63 -6 23 7 69 25 102 41 33 15 71 30 85 33 73 16
166 47 189 64 14 11 38 23 52 26 41 10 76 44 83 79 5 26 -1 48 -29 105 -37 74
-59 92 -94 74 -17 -10 -19 -19 -15 -88 6 -100 3 -103 -122 -145 -65 -22 -115
18 -129 104 -6 32 -3 41 17 58 12 11 28 19 35 20 15 0 33 -32 33 -58 0 -21 29
-52 49 -52 15 0 41 60 41 95 0 16 -12 39 -32 58 -23 23 -32 42 -32 67 -1 32
-4 35 -31 35 -28 0 -30 -3 -33 -38 -3 -29 -9 -41 -28 -49 -28 -13 -74 3 -74
26 0 8 -12 29 -27 46 -21 26 -25 36 -17 58 10 29 58 50 118 51 22 1 54 6 72
13 42 15 68 -3 59 -41 -8 -39 27 -91 63 -91 39 0 52 17 52 66 0 37 -32 114
-62 152 -12 14 -11 14 -98 -4z"/>
<path d="M3191 1651 c-30 -55 14 -100 64 -67 21 14 26 24 23 49 -3 29 -7 32
-40 35 -28 2 -39 -1 -47 -17z"/>
<path d="M2920 1646 c-52 -19 -50 -44 11 -91 28 -22 62 -50 75 -62 26 -24 25
-32 -17 -115 -12 -24 -25 -59 -29 -78 -4 -19 -17 -70 -29 -112 -11 -43 -21
-86 -21 -97 0 -10 24 -43 54 -73 40 -41 65 -58 99 -66 25 -7 49 -16 52 -22 3
-5 38 -10 77 -10 123 0 181 54 227 210 62 215 58 207 110 216 41 7 61 20 61
39 0 18 -97 61 -182 82 -68 16 -69 16 -89 -4 -17 -17 -19 -24 -10 -42 7 -11
20 -21 29 -21 48 0 53 -46 16 -128 -14 -31 -29 -77 -34 -102 -17 -102 -64
-160 -128 -160 -62 0 -142 68 -142 122 0 12 6 43 14 68 19 60 35 122 49 193 9
40 20 64 36 76 41 31 26 68 -49 121 -56 40 -120 72 -139 69 -3 0 -22 -6 -41
-13z"/>
<path d="M3378 1616 c-37 -28 -11 -70 39 -64 34 4 42 31 17 59 -20 22 -32 23
-56 5z"/>
<path d="M5366 1475 c-17 -9 -42 -13 -65 -10 -20 3 -72 -1 -116 -10 -44 -9
-103 -20 -132 -25 -49 -8 -104 -36 -129 -66 -16 -19 16 -214 37 -227 21 -13
61 -2 76 21 8 14 8 34 -3 83 -7 35 -13 72 -14 81 0 18 65 58 95 58 21 0 35
-41 35 -101 0 -27 6 -60 13 -72 8 -14 12 -65 12 -147 l0 -125 -25 -3 c-55 -6
-70 -13 -70 -31 0 -41 28 -54 104 -46 39 4 83 13 98 21 20 10 43 13 77 8 67
-9 91 6 91 55 0 45 -14 54 -69 45 -43 -7 -56 4 -64 56 -14 82 -50 246 -58 262
-21 41 -2 98 33 98 11 0 36 -10 55 -21 33 -21 35 -24 29 -61 -12 -77 55 -135
114 -98 19 12 15 115 -5 147 -8 12 -15 38 -15 57 0 25 -7 39 -22 50 -28 20
-45 20 -82 1z"/>
<path d="M3642 1429 c-36 -14 -25 -47 26 -74 78 -41 85 -52 77 -115 -4 -30
-13 -80 -21 -110 -8 -30 -14 -75 -14 -100 0 -25 -4 -51 -8 -58 -5 -7 -33 -15
-63 -18 -31 -4 -59 -13 -66 -22 -19 -23 -16 -59 7 -82 17 -17 32 -19 174 -17
141 2 156 4 169 22 22 29 1 55 -45 55 -64 0 -94 60 -62 122 13 24 17 55 15
122 -1 48 -4 92 -6 96 -3 5 -1 20 5 34 7 19 17 26 35 26 28 0 31 -10 13 -39
-15 -25 2 -47 43 -56 l29 -7 -20 -28 c-26 -37 -25 -41 13 -65 23 -15 32 -28
32 -49 1 -17 10 -35 24 -45 20 -15 21 -20 11 -38 -7 -11 -10 -31 -7 -45 8 -32
98 -128 119 -128 28 0 50 30 43 57 -3 15 0 34 8 47 9 13 14 43 13 72 l-1 49
-38 3 c-28 2 -40 9 -47 25 -10 27 -34 52 -94 102 -38 31 -44 40 -36 55 15 29
12 73 -10 122 -27 63 -49 79 -101 77 -24 -1 -62 3 -84 9 -48 14 -102 14 -133
1z"/>
<path d="M4535 1403 c-60 -5 -76 -19 -116 -96 -31 -63 -33 -103 -3 -128 8 -6
14 -16 14 -22 0 -6 7 -18 16 -28 14 -16 14 -19 -5 -38 -12 -12 -21 -30 -21
-41 0 -11 -5 -39 -11 -63 -23 -82 10 -177 62 -177 9 0 29 10 44 22 26 21 28
21 74 5 163 -59 302 32 281 184 -15 107 -53 135 -172 126 -69 -6 -78 -5 -68 8
6 8 9 19 5 24 -6 10 -50 32 -87 45 -10 3 -18 14 -18 25 0 11 -3 26 -6 34 -3 9
4 25 15 36 18 18 29 20 80 16 50 -5 65 -11 90 -36 17 -17 34 -41 37 -54 3 -13
12 -29 19 -35 23 -19 42 15 50 85 6 56 4 70 -11 86 -20 22 -55 25 -84 7 -15
-10 -28 -9 -67 5 -26 9 -52 16 -58 15 -5 -1 -32 -3 -60 -5z m127 -321 c13 -10
29 -13 63 -8 42 7 46 6 55 -19 16 -41 13 -52 -27 -96 -37 -41 -38 -41 -96 -36
-41 4 -67 13 -92 31 -35 27 -79 110 -71 132 7 19 146 16 168 -4z"/>
<path d="M4040 1380 c-19 -19 -20 -24 -8 -37 8 -8 37 -20 64 -27 56 -14 51 3
39 -168 -6 -88 3 -101 41 -63 23 23 25 33 23 88 -3 79 20 122 71 134 20 5 35
15 35 23 0 25 -84 57 -167 65 -70 6 -78 5 -98 -15z"/>
</g>
</svg>
